<svg xmlns="http://www.w3.org/2000/svg" xmlns:xlink="http://www.w3.org/1999/xlink" viewBox="0,0,256,256" width="512px" height="512px" fill-rule="nonzero"><g fill="none" fill-rule="nonzero" stroke="none" stroke-width="1" stroke-linecap="butt" stroke-linejoin="miter" stroke-miterlimit="10" stroke-dasharray="" stroke-dashoffset="0" font-family="none" font-weight="none" font-size="none" text-anchor="none" style="mix-blend-mode: normal"><g transform="scale(0.5,0.5)"><path d="M479.36,323.68c11.883,30.652 7.651,65.029 -10.8,91.92c-29.64,-7.71 -48.76,-70.64 -48.76,-70.64l-41.41,78.85c4.74,-36.76 -16.6,-58.1 -16.6,-58.1l-37.35,75.29c11.27,-46.24 -24.7,-85.37 -24.7,-85.37l-47.03,85.37c8.89,-26.68 -8.3,-56.32 -8.3,-56.32l-49.8,56.32c15.42,-23.12 5.93,-64.03 5.93,-64.03l-50.98,24.31c69.95,-80.03 37.82,-139.61 37.82,-139.61c60.57,3.67 41.9,-42.19 41.9,-42.19c-27.86,-42.3 -79.45,-43.85 -79.45,-43.85c4.13,-13.93 -10.32,-33.02 -10.32,-33.02c0,0 136.55,-153.53 250.31,-27.28l46.21,25.67l-23.37,4.67c5.05,8.15 43.37,45.33 43.37,45.33l-21.62,10c2.89,8.86 5.25,9.53 7.04,18.72c5.35,27.48 23.41,66.64 37.91,103.96z" fill="#a04545"></path><circle cx="446.03" cy="61" r="30" fill="#ff4004"></circle><circle cx="56.03" cy="391" r="30" fill="#ff4004"></circle><path d="M271.99,126.77c6.89,4.49 11.44,12.25 11.44,21.08c0,13.9 -11.27,25.17 -25.16,25.17c-13.9,0 -25.17,-11.27 -25.17,-25.17c0,-2.89 0.5,-5.66 1.4,-8.25c8.82,-0.42 20.04,-2.78 31.94,-9.84c1.9,-1.13 3.75,-2.13 5.54,-3z" fill="#f3faff"></path><path d="M229.28,219.48c0,0 18.67,45.86 -41.9,42.19c-7.72,-0.46 -16.73,-1.74 -27.23,-4.01c-91.68,-19.86 -119.75,22.37 -120.45,23.45c0.22,-1.69 12.56,-89.67 147.14,-63.97c11.21,2.14 22.61,3.1 34.01,2.67z" fill="#ffaa45"></path><path d="M139.51,142.61c0,0 14.45,19.09 10.32,33.02c0,0 51.59,1.55 79.45,43.85l-8.43,0.33c-11.4,0.43 -22.8,-0.53 -34.01,-2.67c-134.58,-25.7 -146.92,62.28 -147.14,63.97c-0.01,0.01 -0.01,0.02 -0.01,0.02c0,0 -68.1,-139.29 99.82,-138.52z" fill="#ffda45"></path><path d="M426.03,461c5.52,0 10,4.48 10,10c0,5.52 -4.48,10 -10,10c-5.52,0 -10,-4.48 -10,-10c0,-5.52 4.48,-10 10,-10z" fill="#000000"></path><path d="M356.03,21c5.52,0 10,4.48 10,10c0,5.52 -4.48,10 -10,10c-5.52,0 -10,-4.48 -10,-10c0,-5.52 4.48,-10 10,-10z" fill="#000000"></path><path d="M286.03,471c5.52,0 10,4.48 10,10c0,5.52 -4.48,10 -10,10c-5.52,0 -10,-4.48 -10,-10c0,-5.52 4.48,-10 10,-10z" fill="#000000"></path><path d="M126.03,441c5.52,0 10,4.48 10,10c0,5.52 -4.48,10 -10,10c-5.52,0 -10,-4.48 -10,-10c0,-5.52 4.48,-10 10,-10z" fill="#000000"></path><path d="M106.03,311c5.52,0 10,4.48 10,10c0,5.52 -4.48,10 -10,10c-5.52,0 -10,-4.48 -10,-10c0,-5.52 4.48,-10 10,-10z" fill="#000000"></path><path d="M56.03,61c5.52,0 10,4.48 10,10c0,5.52 -4.48,10 -10,10c-5.52,0 -10,-4.48 -10,-10c0,-5.52 4.48,-10 10,-10z" fill="#000000"></path><path d="M39.692,286.13c-1.85,0 -3.626,-1.03 -4.494,-2.804c-1.22,-2.496 -29.571,-61.607 -2.696,-104.443c17.337,-27.633 53.318,-41.508 107.03,-41.273c1.558,0.007 3.023,0.74 3.964,1.982c1.435,1.896 12.548,17.068 12.065,31.497c14.609,1.692 54.122,9.547 77.894,45.641c0.992,1.506 1.096,3.431 0.271,5.035c-0.825,1.604 -2.449,2.641 -4.251,2.711l-8.43,0.33c-11.475,0.436 -23.297,-0.493 -35.143,-2.755c-48.575,-9.274 -86.107,-4.646 -111.553,13.763c-25.873,18.716 -29.656,45.671 -29.691,45.941c-0.096,0.738 -0.349,1.418 -0.72,2.01c-0.479,0.774 -1.176,1.427 -2.055,1.855c-0.706,0.346 -1.454,0.51 -2.191,0.51zM136.93,147.609c-48.551,0.196 -80.815,12.49 -95.937,36.557c-16.826,26.78 -8.555,62.463 -2.062,81.494c4.322,-10.917 12.891,-25.892 29.556,-37.947c27.768,-20.088 67.902,-25.297 119.29,-15.483c10.752,2.052 21.467,2.93 31.865,2.619c-26.854,-32.417 -69.511,-34.206 -69.97,-34.221c-1.548,-0.051 -2.989,-0.816 -3.895,-2.072c-0.906,-1.256 -1.182,-2.862 -0.742,-4.347c2.481,-8.362 -4.076,-20.611 -8.105,-26.6z" fill="#000000"></path><path d="M39.691,286.13c-2.761,0 -5,-2.239 -5,-5c0,-0.973 0.289,-1.929 0.814,-2.74v0c1.227,-1.892 31.131,-46.103 125.704,-25.617c9.864,2.133 18.77,3.447 26.469,3.905c17.892,1.084 30.241,-2.346 35.706,-9.921c7.272,-10.079 1.321,-25.253 1.261,-25.405c-1.026,-2.558 0.21,-5.47 2.766,-6.503c2.555,-1.031 5.462,0.192 6.501,2.745c0.335,0.824 8.099,20.356 -2.375,34.955c-7.667,10.687 -22.629,15.435 -44.458,14.111c-8.203,-0.489 -17.62,-1.873 -27.984,-4.113c-46.09,-9.984 -75.008,-3.602 -91.153,3.509c-16.476,7.258 -23.326,16.731 -23.991,17.695c-0.882,1.427 -2.46,2.379 -4.26,2.379z" fill="#000000"></path><path d="M258.271,178.02c-16.636,0 -30.17,-13.534 -30.17,-30.17c0,-3.362 0.564,-6.69 1.678,-9.892c0.907,-2.608 3.755,-3.989 6.365,-3.081c2.608,0.907 3.987,3.756 3.081,6.365c-0.745,2.144 -1.123,4.367 -1.123,6.608c0,11.122 9.048,20.17 20.17,20.17c11.116,0 20.16,-9.048 20.16,-20.17c0,-6.835 -3.428,-13.149 -9.169,-16.891c-2.314,-1.507 -2.967,-4.605 -1.459,-6.918c1.507,-2.313 4.605,-2.968 6.918,-1.459c8.585,5.594 13.71,15.041 13.71,25.269c-0.002,16.635 -13.532,30.169 -30.161,30.169z" fill="#000000"></path><path d="M231.359,144.678c-10.094,0 -16.667,-2.239 -16.97,-2.345c-2.608,-0.907 -3.988,-3.756 -3.082,-6.364c0.905,-2.602 3.741,-3.982 6.348,-3.088c0.157,0.053 6.748,2.216 16.6,1.725c10.26,-0.488 20.228,-3.565 29.635,-9.146c1.991,-1.184 3.979,-2.26 5.905,-3.197c25.861,-12.648 41.305,-2.267 41.949,-1.818c2.268,1.576 2.828,4.691 1.252,6.959c-1.576,2.268 -4.692,2.829 -6.959,1.252c-0.411,-0.267 -11.59,-7.319 -31.859,2.596c-1.686,0.82 -3.425,1.762 -5.181,2.806c-10.832,6.426 -22.356,9.971 -34.258,10.537c-1.165,0.057 -2.294,0.083 -3.38,0.083z" fill="#000000"></path><path d="M446.03,96c-19.299,0 -35,-15.701 -35,-35c0,-19.299 15.701,-35 35,-35c19.299,0 35,15.701 35,35c0,19.299 -15.701,35 -35,35zM446.03,36c-13.785,0 -25,11.215 -25,25c0,13.785 11.215,25 25,25c13.785,0 25,-11.215 25,-25c0,-13.785 -11.214,-25 -25,-25z" fill="#000000"></path><path d="M56.03,426c-19.299,0 -35,-15.701 -35,-35c0,-19.299 15.701,-35 35,-35c19.299,0 35,15.701 35,35c0,19.299 -15.701,35 -35,35zM56.03,366c-13.785,0 -25,11.215 -25,25c0,13.785 11.215,25 25,25c13.785,0 25,-11.215 25,-25c0,-13.785 -11.214,-25 -25,-25z" fill="#000000"></path><path d="M324.44,446.001c-0.57,0 -1.149,-0.098 -1.712,-0.304c-2.394,-0.873 -3.748,-3.406 -3.145,-5.881c8.11,-33.276 -10.206,-63.206 -19.071,-75.224l-43.421,78.82c-1.248,2.265 -4.015,3.203 -6.384,2.168c-2.369,-1.037 -3.556,-3.708 -2.739,-6.161c5.718,-17.162 -0.581,-36.152 -4.771,-45.818l-44.84,50.711c-1.742,1.97 -4.712,2.254 -6.796,0.65c-2.083,-1.604 -2.568,-4.548 -1.109,-6.736c10.664,-15.988 8.204,-42.092 6.355,-53.936l-45.094,21.503c-2.141,1.021 -4.703,0.397 -6.136,-1.492c-1.433,-1.89 -1.341,-4.526 0.22,-6.312c66.894,-76.533 37.489,-133.381 37.184,-133.946c-1.311,-2.43 -0.403,-5.463 2.028,-6.774c2.43,-1.31 5.463,-0.404 6.774,2.028c0.354,0.656 8.659,16.371 7.918,42.31c-0.58,20.301 -7.051,50.595 -32.634,85.787l31.323,-14.936c1.367,-0.652 2.957,-0.649 4.322,0.009c1.365,0.658 2.358,1.898 2.701,3.375c0.287,1.236 5.018,22.172 2.071,43.055l33.183,-37.527c1.064,-1.204 2.639,-1.82 4.241,-1.664c1.599,0.159 3.024,1.077 3.83,2.467c0.527,0.908 9.337,16.354 11.195,35.359l35.43,-64.314c0.776,-1.409 2.184,-2.359 3.781,-2.551c1.594,-0.193 3.19,0.396 4.279,1.58c1.249,1.359 25.166,27.835 27.964,63.502l25.925,-52.261c0.715,-1.442 2.082,-2.452 3.67,-2.712c1.59,-0.262 3.206,0.26 4.344,1.398c0.755,0.755 15.087,15.412 18.175,41.15l31.873,-60.689c0.943,-1.796 2.875,-2.841 4.896,-2.653c2.019,0.191 3.724,1.583 4.314,3.523c4.845,15.917 21.387,57.081 41.935,66.101c9.506,-15.097 14.512,-32.395 14.512,-50.267c0,-11.625 -2.13,-23.015 -6.332,-33.853c-3.772,-9.708 -7.839,-19.671 -11.772,-29.307c-11.488,-28.143 -22.338,-54.724 -26.384,-75.505c-0.903,-4.635 -1.878,-6.605 -3.227,-9.333c-1.088,-2.2 -2.322,-4.693 -3.659,-8.792c-0.786,-2.409 0.354,-5.025 2.654,-6.089l15.035,-6.954c-10.975,-10.771 -34.704,-34.375 -38.936,-41.204c-0.863,-1.393 -0.989,-3.121 -0.337,-4.624c0.652,-1.503 2,-2.592 3.607,-2.913l10.027,-2.003l-34.315,-19.062c-0.482,-0.268 -0.917,-0.614 -1.286,-1.024c-28.799,-31.961 -61.632,-48.165 -97.588,-48.165c-0.13,0 -0.258,0 -0.388,0c-77.137,0.25 -144.214,74.668 -144.883,75.42c-1.835,2.063 -4.995,2.25 -7.059,0.414c-2.063,-1.835 -2.249,-4.996 -0.413,-7.059c0.713,-0.802 17.776,-19.857 45.045,-39.206c25.332,-17.974 64.506,-39.43 107.277,-39.568c38.877,-0.139 74.119,16.98 104.876,50.849l45.486,25.268c1.833,1.018 2.835,3.071 2.512,5.143c-0.323,2.071 -1.904,3.721 -3.96,4.131l-15.288,3.055c8.576,9.611 25.852,26.871 37.79,38.454c1.182,1.147 1.724,2.803 1.447,4.427c-0.277,1.624 -1.335,3.008 -2.83,3.699l-17.412,8.054c0.535,1.242 1.053,2.289 1.561,3.316c1.502,3.036 2.92,5.903 4.08,11.856c3.859,19.82 14.529,45.961 25.827,73.637c3.949,9.674 8.032,19.677 11.836,29.468c4.651,11.999 7.009,24.604 7.009,37.471c0,21.163 -6.344,41.595 -18.347,59.089c-1.192,1.736 -3.342,2.54 -5.382,2.01c-24.172,-6.288 -41.208,-43.826 -48.438,-62.941l-36.047,68.637c-1.125,2.144 -3.625,3.172 -5.933,2.443c-2.308,-0.729 -3.763,-3.007 -3.453,-5.408c3.006,-23.313 -5.19,-39.954 -10.678,-48.15l-33.833,68.202c-0.866,1.745 -2.629,2.779 -4.48,2.779z" fill="#000000"></path></g></g></svg>